<svg xmlns="http://www.w3.org/2000/svg" width="512" height="512" viewBox="0 0 512 512">
  <defs>
    <linearGradient id="bg" x1="0%" y1="0%" x2="100%" y2="100%">
      <stop offset="0%" style="stop-color:#1a1a2e"/>
      <stop offset="100%" style="stop-color:#0f0f1a"/>
    </linearGradient>
    <linearGradient id="shield" x1="0%" y1="0%" x2="100%" y2="100%">
      <stop offset="0%" style="stop-color:#6366f1"/>
      <stop offset="100%" style="stop-color:#8b5cf6"/>
    </linearGradient>
  </defs>
  
  <!-- Background -->
  <rect width="512" height="512" rx="96" fill="url(#bg)"/>
  
  <!-- Shield outline -->
  <path d="M256 72 L416 136 L416 256 C416 352 344 424 256 456 C168 424 96 352 96 256 L96 136 Z" 
        fill="none" 
        stroke="url(#shield)" 
        stroke-width="24"
        stroke-linejoin="round"/>
  
  <!-- Lock body -->
  <rect x="196" y="232" width="120" height="100" rx="12" fill="url(#shield)"/>
  
  <!-- Lock shackle -->
  <path d="M216 232 L216 192 C216 160 232 144 256 144 C280 144 296 160 296 192 L296 232" 
        fill="none" 
        stroke="url(#shield)" 
        stroke-width="20"
        stroke-linecap="round"/>
  
  <!-- Keyhole -->
  <circle cx="256" cy="272" r="16" fill="#0f0f1a"/>
  <rect x="250" y="272" width="12" height="32" rx="4" fill="#0f0f1a"/>
</svg>